<svg width="96" height="137" viewBox="0 0 96 137" fill="none" xmlns="http://www.w3.org/2000/svg">
<rect width="96" height="137" fill="#DCDCDC"/>
<g id="Login_pc" clipPath="url(#clip0_14_2)">
<rect width="1728" height="1117" transform="translate(-398 -240)" fill="#F4F4F4"/>
<g id="BG_pc">
<g id="Vector 1" filter="url(#filter0_f_14_2)">
<path d="M609.394 1088.36C869.384 1053.85 376.728 738.529 269.463 549.499C162.199 360.47 174.228 -294.667 71.4634 -330.501C-56.9926 -375.292 41.2044 331.286 -334.035 331.286C-709.275 331.286 -519.11 1030.47 -613.035 1186.79C-706.96 1343.1 -267.698 1063.68 -31.5051 1063.68C157.449 1063.68 200.544 1063.68 297.232 1088.36C297.232 1088.36 475.586 1106.12 609.394 1088.36Z" fill="#FEFFE7"/>
</g>
<g id="Vector 1_2" filter="url(#filter1_f_14_2)">
<path d="M1325.93 892.087C1593.82 861.877 1133.31 797.82 1114.81 630.017C1096.3 462.214 1536.85 83.8701 1430.96 52.4971C1298.6 13.2808 884.463 874.063 349.963 254.497C-184.537 -365.069 593.463 669.997 -131.537 735.497C-298.475 750.579 422.185 870.478 665.556 870.478C860.252 870.478 904.657 870.478 1004.28 892.087C1004.28 892.087 1188.06 907.635 1325.93 892.087Z" fill="#A6FEFF" fill-opacity="0.5"/>
</g>
<path id="Vector 1_3" d="M1352.12 706.941C1528.7 667.822 1614.52 358.539 1602.32 141.25C1590.13 -76.0392 1360.62 -304.802 1290.82 -345.427C1203.58 -396.208 416.799 -634.242 562.824 -179.75C708.848 274.742 394.463 331.5 562.824 486C701.596 613.348 923.546 -31.0002 1083.96 -31.0001C1212.3 -31.0001 1033.32 425.558 1160.96 533.5C1160.96 533.5 1261.24 727.074 1352.12 706.941Z" fill="#D2FDDF" fill-opacity="0.5"/>
</g>
<g id="Credential card" filter="url(#filter3_b_14_2)">
<rect x="-298" y="-120" width="694" height="925" rx="50" fill="url(#paint0_linear_14_2)"/>
<g id="Group 9">
<g id="Group 8">
<g id="Group 6">
<g id="Group 5">
<path id="Vector" opacity="0.5" d="M80.239 30.6302C80.2095 30.715 80.1773 30.7997 80.1451 30.8871L79.8017 30.7741L56.9757 23.2484L38.732 17.2386L25.9158 13.0146C25.0046 12.6978 24.2093 12.1338 23.6272 11.3915C23.045 10.6492 22.701 9.76059 22.6373 8.83421C22.6373 8.72887 22.6373 8.62352 22.6373 8.51561C22.6373 8.4077 22.6373 8.32548 22.6373 8.23041C22.6646 7.76964 22.7623 7.31518 22.9271 6.8815C23.9179 4.2759 25.9487 2.15384 28.573 0.982031C31.1973 -0.189783 34.2001 -0.315402 36.921 0.632789L39.5395 1.49095L70.5296 11.6451C73.4808 12.6138 75.8552 14.42 77.7412 16.5269C78.9512 17.8861 80.1559 20.7073 80.1559 20.7073L80.3463 21.2468C81.3689 24.3037 81.3313 27.5955 80.239 30.6302Z" fill="#080808"/>
<path id="Vector_2" opacity="0.5" d="M73.781 58.855C73.7809 59.0345 73.7701 59.2138 73.7488 59.392C73.7048 59.7666 73.6147 60.1348 73.4805 60.4892C72.9902 61.7795 72.2393 62.9648 71.2706 63.9772C70.302 64.9896 69.1346 65.8093 67.8351 66.3896C66.5356 66.9698 65.1294 67.2993 63.697 67.359C62.2645 67.4188 60.8338 67.2077 59.4865 66.7379L56.8466 65.8746L25.8833 55.7358C22.9537 54.7825 20.3889 53.0116 18.5187 50.6511C16.2923 47.8459 15.1704 44.3785 15.3503 40.8592C15.4264 39.3675 15.7357 37.8951 16.2678 36.4913V36.4707H16.2973L38.9946 43.9501L57.7882 50.1449L70.4944 54.333C71.3668 54.6368 72.1335 55.1675 72.7084 55.8656C73.2833 56.5636 73.6436 57.4014 73.7488 58.2847C73.7711 58.474 73.7819 58.6645 73.781 58.855Z" fill="#080808"/>
<path id="Vector_3" opacity="0.5" d="M80.22 30.6053L79.7827 30.7467L38.9759 43.9481L18.5001 50.6284C16.2702 47.8236 15.1453 44.3551 15.3235 40.834C15.3997 39.3423 15.709 37.8699 16.2411 36.4661H16.2786L56.954 23.2184L77.7196 16.4995C77.7196 16.4995 79.442 18.8685 80.1342 20.6799C80.1851 20.8135 80.3246 21.2194 80.3246 21.2194C81.3487 24.2769 81.312 27.5696 80.22 30.6053Z" fill="#080808"/>
<path id="Vector_4" opacity="0.5" d="M39.5448 1.48851V12.709C39.5476 14.2509 39.2754 15.782 38.7399 17.2362C37.759 19.8853 35.9451 22.1783 33.5477 23.7997C31.1503 25.4212 28.2873 26.2914 25.3523 26.2906H24.7111C24.1622 26.29 23.6361 26.0807 23.2483 25.7088C22.8604 25.3368 22.6426 24.8327 22.6426 24.3071V8.22797C22.6699 7.7672 22.7675 7.31274 22.9323 6.87905C23.9231 4.27346 25.954 2.1514 28.5782 0.97959C31.2025 -0.192224 34.2053 -0.317843 36.9263 0.630347L39.5448 1.48851Z" fill="#080808"/>
<path id="Vector_5" opacity="0.5" d="M73.7489 43.4317V59.3926C73.7049 59.7671 73.6149 60.1354 73.4806 60.4897C72.9903 61.7801 72.2394 62.9653 71.2708 63.9777C70.3021 64.9901 69.1347 65.8099 67.8352 66.3901C66.5357 66.9704 65.1296 67.2998 63.6971 67.3596C62.2647 67.4193 60.8339 67.2083 59.4867 66.7384L56.8467 65.8751V55.0427C56.8432 53.3737 57.1625 51.7185 57.7884 50.1609C58.8189 47.5964 60.6368 45.3914 63.0024 43.8364C65.3679 42.2815 68.17 41.4497 71.0392 41.4507H71.6911C72.2379 41.4534 72.7613 41.6633 73.1469 42.0345C73.5325 42.4057 73.7489 42.9081 73.7489 43.4317Z" fill="#080808"/>
</g>
</g>
<g id="Group 7">
<g id="ZUNI">
<path d="M0.337524 118.706V118.072L14.3583 96.5635H1.56742V91.8213H24.1155V92.4561L10.1767 113.927H23.7055V118.706H0.337524Z" fill="#080808"/>
<path d="M41.0342 119.267C38.6565 119.267 36.5656 118.831 34.7618 117.96C32.9579 117.076 31.5504 115.837 30.5391 114.244C29.5279 112.651 29.0223 110.778 29.0223 108.625V91.8586L34.6798 91.8213V108.587C34.6798 109.471 34.8438 110.274 35.1717 110.996C35.4997 111.718 35.9507 112.34 36.5246 112.863C37.1122 113.385 37.7887 113.79 38.554 114.076C39.3329 114.35 40.1597 114.487 41.0342 114.487C41.9362 114.487 42.7698 114.344 43.535 114.058C44.314 113.771 44.9904 113.367 45.5644 112.844C46.1383 112.321 46.5824 111.699 46.8968 110.977C47.2247 110.255 47.3887 109.458 47.3887 108.587V91.8213H53.0462V108.625C53.0462 110.778 52.5406 112.651 51.5294 114.244C50.5181 115.837 49.1106 117.076 47.3067 117.96C45.5029 118.831 43.412 119.267 41.0342 119.267Z" fill="#080808"/>
<path d="M58.7688 118.706V91.8213H64.4263L77.2582 109.745V91.8213H82.9157V118.706H77.2582L64.4263 100.783V118.706H58.7688Z" fill="#080808"/>
<path d="M89.0453 118.706V91.8213H94.6209V118.706H89.0453Z" fill="#080808"/>
</g>
<g id="Since 2023">
<path d="M4.74371 136.918C4.05405 136.918 3.43204 136.804 2.87769 136.575C2.3277 136.347 1.87375 136.02 1.51582 135.596C1.16226 135.168 0.93746 134.66 0.841431 134.074L2.47829 133.837C2.61797 134.369 2.90388 134.781 3.33601 135.072C3.77251 135.363 4.27448 135.509 4.84193 135.509C5.17803 135.509 5.49449 135.459 5.79131 135.359C6.08812 135.259 6.3282 135.114 6.51153 134.922C6.69922 134.731 6.79307 134.496 6.79307 134.217C6.79307 134.093 6.77124 133.978 6.72759 133.874C6.68394 133.766 6.61847 133.671 6.53117 133.587C6.44823 133.504 6.33911 133.429 6.2038 133.363C6.07285 133.292 5.92007 133.232 5.74547 133.182L3.30982 132.496C3.1003 132.438 2.87332 132.361 2.62889 132.265C2.38881 132.165 2.15965 132.03 1.9414 131.86C1.72752 131.685 1.55074 131.465 1.41106 131.199C1.27575 130.928 1.20809 130.596 1.20809 130.201C1.20809 129.622 1.36086 129.138 1.66641 128.747C1.97632 128.352 2.39099 128.057 2.91043 127.861C3.43422 127.666 4.01476 127.57 4.65205 127.574C5.29806 127.579 5.87424 127.685 6.38058 127.893C6.88691 128.096 7.31032 128.394 7.65078 128.785C7.99125 129.175 8.23132 129.647 8.371 130.201L6.67521 130.481C6.60537 130.165 6.47006 129.897 6.26927 129.677C6.07285 129.452 5.83059 129.281 5.5425 129.165C5.25878 129.049 4.95541 128.986 4.63241 128.978C4.31813 128.974 4.02568 129.02 3.75505 129.115C3.48878 129.207 3.27272 129.34 3.10685 129.514C2.94535 129.689 2.86459 129.893 2.86459 130.126C2.86459 130.346 2.93443 130.527 3.07411 130.668C3.21379 130.806 3.38621 130.916 3.59136 130.999C3.80088 131.078 4.01258 131.144 4.22646 131.199L5.91571 131.648C6.14705 131.706 6.40677 131.785 6.69485 131.885C6.98294 131.984 7.26012 132.124 7.52638 132.303C7.79264 132.481 8.01089 132.716 8.18113 133.007C8.35573 133.298 8.44302 133.669 8.44302 134.118C8.44302 134.583 8.34045 134.993 8.13529 135.346C7.93451 135.696 7.6617 135.987 7.31686 136.22C6.97203 136.453 6.577 136.627 6.13177 136.744C5.69091 136.86 5.22823 136.918 4.74371 136.918Z" fill="black"/>
<path d="M12.8721 128.972V127.593H14.45V128.972H12.8721ZM12.8721 136.731V129.995H14.45V136.731H12.8721Z" fill="black"/>
<path d="M24.1831 136.731V133.488C24.1831 133.276 24.1678 133.041 24.1373 132.783C24.1067 132.525 24.0347 132.278 23.9212 132.041C23.8121 131.799 23.6462 131.602 23.4236 131.448C23.2053 131.294 22.9085 131.217 22.5331 131.217C22.3324 131.217 22.1337 131.248 21.9373 131.311C21.7409 131.373 21.5619 131.481 21.4004 131.635C21.2433 131.785 21.1167 131.993 21.0207 132.259C20.9247 132.521 20.8766 132.858 20.8766 133.269L19.9404 132.889C19.9404 132.315 20.056 131.795 20.2874 131.329C20.5231 130.864 20.8679 130.494 21.3219 130.219C21.7758 129.941 22.3345 129.801 22.998 129.801C23.5218 129.801 23.9539 129.884 24.2944 130.051C24.6349 130.217 24.9055 130.429 25.1063 130.687C25.3071 130.945 25.4555 131.219 25.5515 131.51C25.6475 131.801 25.7087 132.078 25.7349 132.34C25.7654 132.598 25.7807 132.808 25.7807 132.97V136.731H24.1831ZM19.2791 136.731V129.995H20.6868V132.084H20.8766V136.731H19.2791Z" fill="black"/>
<path d="M33.3258 136.918C32.5969 136.918 31.9748 136.764 31.4598 136.457C30.9447 136.145 30.5497 135.721 30.2747 135.184C30.0041 134.648 29.8666 134.041 29.8622 133.363C29.8666 132.673 30.0084 132.061 30.2878 131.529C30.5715 130.993 30.9731 130.573 31.4925 130.269C32.012 129.961 32.6296 129.808 33.3454 129.808C34.1486 129.808 34.8274 130.001 35.3817 130.388C35.9404 130.77 36.3049 131.294 36.4751 131.959L34.9037 132.365C34.7815 132.003 34.5786 131.722 34.2948 131.523C34.0111 131.319 33.6881 131.217 33.3258 131.217C32.9155 131.217 32.5772 131.311 32.311 131.498C32.0447 131.681 31.8483 131.935 31.7217 132.259C31.5951 132.583 31.5318 132.951 31.5318 133.363C31.5318 134.003 31.6824 134.521 31.9836 134.916C32.2848 135.311 32.7322 135.509 33.3258 135.509C33.7448 135.509 34.0744 135.417 34.3145 135.234C34.5589 135.051 34.7422 134.787 34.8645 134.442L36.4751 134.785C36.2569 135.471 35.8749 135.999 35.3293 136.369C34.7837 136.735 34.1159 136.918 33.3258 136.918Z" fill="black"/>
<path d="M43.691 136.918C42.9752 136.918 42.3466 136.771 41.8054 136.475C41.2641 136.18 40.8407 135.771 40.5352 135.247C40.234 134.723 40.0834 134.12 40.0834 133.438C40.0834 132.702 40.2318 132.063 40.5286 131.523C40.8254 130.978 41.2379 130.556 41.7661 130.257C42.2942 129.957 42.9053 129.808 43.5994 129.808C44.3327 129.808 44.9547 129.972 45.4654 130.3C45.9805 130.625 46.3624 131.084 46.6112 131.679C46.86 132.273 46.9539 132.974 46.8927 133.781H45.3279V133.232C45.3235 132.5 45.1882 131.966 44.922 131.629C44.6557 131.292 44.2367 131.124 43.6648 131.124C43.0188 131.124 42.5387 131.315 42.2244 131.698C41.9101 132.076 41.753 132.631 41.753 133.363C41.753 134.045 41.9101 134.573 42.2244 134.947C42.5387 135.322 42.997 135.509 43.5994 135.509C43.9879 135.509 44.3218 135.428 44.6011 135.265C44.8849 135.099 45.1031 134.86 45.2559 134.548L46.8142 134.997C46.5435 135.604 46.1245 136.076 45.5571 136.413C44.994 136.75 44.372 136.918 43.691 136.918ZM41.2554 133.781V132.646H46.1201V133.781H41.2554Z" fill="black"/>
<path d="M56.475 136.719V135.409L60.5083 131.984C60.8226 131.718 61.0408 131.467 61.163 131.23C61.2852 130.993 61.3464 130.764 61.3464 130.544C61.3464 130.244 61.2787 129.978 61.1434 129.745C61.0081 129.508 60.8204 129.321 60.5803 129.184C60.3446 129.047 60.0718 128.978 59.7619 128.978C59.4345 128.978 59.1442 129.051 58.8911 129.196C58.6423 129.338 58.448 129.527 58.3083 129.764C58.1687 130.001 58.1032 130.257 58.1119 130.531H56.4881C56.4881 129.932 56.6278 129.41 56.9072 128.965C57.1909 128.521 57.5794 128.175 58.0726 127.93C58.5702 127.685 59.1442 127.562 59.7946 127.562C60.397 127.562 60.9382 127.691 61.4184 127.949C61.8985 128.202 62.2761 128.556 62.5511 129.009C62.8261 129.458 62.9636 129.976 62.9636 130.562C62.9636 130.991 62.9025 131.35 62.7802 131.641C62.658 131.932 62.4747 132.201 62.2303 132.446C61.9902 132.691 61.6912 132.964 61.3333 133.263L58.472 135.677L58.328 135.303H62.9636V136.719H56.475Z" fill="black"/>
<path d="M70.8101 136.918C70.1422 136.918 69.553 136.783 69.0423 136.513C68.5316 136.238 68.1322 135.858 67.8441 135.371C67.5604 134.885 67.4185 134.324 67.4185 133.687V130.793C67.4185 130.157 67.5604 129.595 67.8441 129.109C68.1322 128.622 68.5316 128.244 69.0423 127.974C69.553 127.699 70.1422 127.562 70.8101 127.562C71.4779 127.562 72.065 127.699 72.5714 127.974C73.0821 128.244 73.4814 128.622 73.7695 129.109C74.0576 129.595 74.2017 130.157 74.2017 130.793V133.687C74.2017 134.324 74.0576 134.885 73.7695 135.371C73.4814 135.858 73.0821 136.238 72.5714 136.513C72.065 136.783 71.4779 136.918 70.8101 136.918ZM70.8101 135.49C71.1418 135.49 71.443 135.415 71.7136 135.265C71.9843 135.112 72.1981 134.908 72.3553 134.654C72.5124 134.396 72.591 134.109 72.591 133.793V130.681C72.591 130.361 72.5124 130.074 72.3553 129.82C72.1981 129.562 71.9843 129.358 71.7136 129.209C71.443 129.055 71.1418 128.978 70.8101 128.978C70.4783 128.978 70.1772 129.055 69.9065 129.209C69.6359 129.358 69.422 129.562 69.2649 129.82C69.1077 130.074 69.0292 130.361 69.0292 130.681V133.793C69.0292 134.109 69.1077 134.396 69.2649 134.654C69.422 134.908 69.6359 135.112 69.9065 135.265C70.1772 135.415 70.4783 135.49 70.8101 135.49Z" fill="black"/>
<path d="M78.6566 136.719V135.409L82.6898 131.984C83.0041 131.718 83.2224 131.467 83.3446 131.23C83.4668 130.993 83.5279 130.764 83.5279 130.544C83.5279 130.244 83.4602 129.978 83.3249 129.745C83.1896 129.508 83.0019 129.321 82.7618 129.184C82.5261 129.047 82.2533 128.978 81.9434 128.978C81.616 128.978 81.3258 129.051 81.0726 129.196C80.8238 129.338 80.6296 129.527 80.4899 129.764C80.3502 130.001 80.2847 130.257 80.2935 130.531H78.6697C78.6697 129.932 78.8094 129.41 79.0887 128.965C79.3724 128.521 79.7609 128.175 80.2542 127.93C80.7518 127.685 81.3258 127.562 81.9762 127.562C82.5785 127.562 83.1198 127.691 83.5999 127.949C84.0801 128.202 84.4576 128.556 84.7326 129.009C85.0076 129.458 85.1451 129.976 85.1451 130.562C85.1451 130.991 85.084 131.35 84.9618 131.641C84.8396 131.932 84.6562 132.201 84.4118 132.446C84.1717 132.691 83.8727 132.964 83.5148 133.263L80.6536 135.677L80.5095 135.303H85.1451V136.719H78.6566Z" fill="black"/>
<path d="M92.2976 136.9C91.8262 136.9 91.381 136.812 90.9619 136.638C90.5429 136.463 90.1784 136.216 89.8685 135.895C89.5629 135.575 89.3425 135.197 89.2072 134.76L90.7328 134.367C90.8419 134.725 91.0405 135.001 91.3286 135.197C91.621 135.388 91.9419 135.482 92.291 135.477C92.601 135.477 92.8781 135.409 93.1226 135.272C93.367 135.134 93.5591 134.949 93.6988 134.716C93.8384 134.479 93.9083 134.215 93.9083 133.924C93.9083 133.479 93.7577 133.107 93.4565 132.808C93.1553 132.508 92.7668 132.359 92.291 132.359C92.147 132.359 92.0051 132.377 91.8655 132.415C91.7302 132.452 91.5992 132.504 91.4726 132.571L90.7524 131.386L93.9214 128.803L94.0589 129.165H89.5739V127.749H95.3553V129.171L92.8083 131.504L92.7952 131.061C93.367 131.099 93.8537 131.25 94.2553 131.517C94.6612 131.783 94.9711 132.126 95.185 132.546C95.4033 132.966 95.5124 133.425 95.5124 133.924C95.5124 134.49 95.3662 134.997 95.0737 135.446C94.7856 135.895 94.3971 136.251 93.9083 136.513C93.4238 136.771 92.8869 136.9 92.2976 136.9Z" fill="black"/>
</g>
</g>
</g>
</g>
<rect x="-297.5" y="-119.5" width="693" height="924" rx="49.5" stroke="white"/>
</g>
</g>
<defs>
<filter id="filter0_f_14_2" x="-1026" y="-732.543" width="2110.2" height="2366.84" filterUnits="userSpaceOnUse" color-interpolation-filters="sRGB">
<feFlood flood-opacity="0" result="BackgroundImageFix"/>
<feBlend mode="normal" in="SourceGraphic" in2="BackgroundImageFix" result="shape"/>
<feGaussianBlur stdDeviation="200" result="effect1_foregroundBlur_14_2"/>
</filter>
<filter id="filter1_f_14_2" x="-556.365" y="-348.81" width="2403.78" height="1647.81" filterUnits="userSpaceOnUse" color-interpolation-filters="sRGB">
<feFlood flood-opacity="0" result="BackgroundImageFix"/>
<feBlend mode="normal" in="SourceGraphic" in2="BackgroundImageFix" result="shape"/>
<feGaussianBlur stdDeviation="200" result="effect1_foregroundBlur_14_2"/>
</filter>
<filter id="filter3_b_14_2" x="-328" y="-150" width="754" height="985" filterUnits="userSpaceOnUse" color-interpolation-filters="sRGB">
<feFlood flood-opacity="0" result="BackgroundImageFix"/>
<feGaussianBlur in="BackgroundImageFix" stdDeviation="15"/>
<feComposite in2="SourceAlpha" operator="in" result="effect1_backgroundBlur_14_2"/>
<feBlend mode="normal" in="SourceGraphic" in2="effect1_backgroundBlur_14_2" result="shape"/>
</filter>
<linearGradient id="paint0_linear_14_2" x1="-174.301" y1="-54.5133" x2="559.77" y2="232.664" gradientUnits="userSpaceOnUse">
<stop stop-color="white" stop-opacity="0.61"/>
<stop offset="1" stop-color="white" stop-opacity="0.2"/>
</linearGradient>
<clipPath id="clip0_14_2">
<rect width="1728" height="1117" fill="white" transform="translate(-398 -240)"/>
</clipPath>
</defs>
</svg>
